<svg width="43" height="43" viewBox="0 0 43 43" fill="none" xmlns="http://www.w3.org/2000/svg">
<rect width="43" height="43" rx="21.5" fill="url(#paint0_linear_361_14)"/>
<path fill-rule="evenodd" clip-rule="evenodd" d="M18.0855 34.9747C21.5829 34.9747 24.9372 33.5853 27.4103 31.1122C29.8834 28.6391 31.2727 25.2849 31.2727 21.7874C31.2727 18.2899 29.8834 14.9357 27.4103 12.4626C24.9372 9.98947 21.5829 8.6001 18.0855 8.6001H15.7273C13.5182 8.6001 11.7273 10.391 11.7273 12.6001V18.4906H17.8499V18.4905C17.857 18.4905 17.864 18.4905 17.871 18.4906H18.0855V18.4996C18.8112 18.5555 19.4963 18.8688 20.0146 19.3871C20.5887 19.9613 20.9113 20.7399 20.9113 21.5518C20.9113 22.3638 20.5887 23.1424 20.0146 23.7165C19.4963 24.2349 18.8112 24.5481 18.0855 24.6041V24.6132H11.7273V30.9747C11.7273 33.1838 13.5182 34.9747 15.7273 34.9747H18.0855Z" fill="#F4F2FF"/>
<circle cx="15.0241" cy="21.7874" r="1.41292" fill="#F4F2FF"/>
<defs>
<linearGradient id="paint0_linear_361_14" x1="7.5" y1="38.5" x2="39" y2="4.5" gradientUnits="userSpaceOnUse">
<stop stop-color="#2600FF"/>
<stop offset="1" stop-color="#00E1C9"/>
</linearGradient>
</defs>
</svg>
